<svg xmlns="http://www.w3.org/2000/svg" width="512" height="512" viewBox="0 0 512 512">
  <rect width="512" height="512" rx="72" fill="#2563eb"/>
  <g transform="translate(256,256)" fill="white" text-anchor="middle">
    <rect x="-96" y="-96" width="192" height="192" rx="28" fill="white" opacity="0.12"/>
    <path d="M-64-44 L-64-22 C-64-12 -54-2 -44-2 L44-2 C54-2 64-12 64-22 L64-44 Z" fill="white" opacity="0.9"/>
    <path d="M-64-44 L-64-22 C-64-12 -54-2 -44-2 L-22-2 L-22 64 L22 64 L22-2 L44-2 C54-2 64-12 64-22 L64-44 Z" fill="white" opacity="0.9"/>
    <path d="M-38 20 L-16 20 L-16 38 L-38 38 Z" fill="white" opacity="0.7"/>
    <path d="M-6 20 L16 20 L16 38 L-6 38 Z" fill="white" opacity="0.7"/>
    <path d="M26 20 L48 20 L48 38 L26 38 Z" fill="white" opacity="0.7"/>
  </g>
</svg>
