<svg xmlns="http://www.w3.org/2000/svg" width="192" height="192" viewBox="0 0 192 192">
  <rect width="192" height="192" rx="32" fill="#2563eb"/>
  <g transform="translate(96,96)" fill="white" text-anchor="middle">
    <rect x="-36" y="-36" width="72" height="72" rx="12" fill="white" opacity="0.15"/>
    <path d="M-24-16 L-24-8 C-24-4 -20 0 -16 0 L16 0 C20 0 24-4 24-8 L24-16 Z" fill="white" opacity="0.9"/>
    <path d="M-24-16 L-24-8 C-24-4 -20 0 -16 0 L-8 0 L-8 24 L8 24 L8 0 L16 0 C20 0 24-4 24-8 L24-16 Z" fill="white" opacity="0.9"/>
    <path d="M-14 8 L-6 8 L-6 14 L-14 14 Z" fill="white" opacity="0.7"/>
    <path d="M-2 8 L6 8 L6 14 L-2 14 Z" fill="white" opacity="0.7"/>
    <path d="M10 8 L18 8 L18 14 L10 14 Z" fill="white" opacity="0.7"/>
  </g>
</svg>
